<?xml version="1.0" encoding="UTF-8" standalone="no"?>
<svg
   xmlns:dc="http://purl.org/dc/elements/1.1/"
   xmlns:cc="http://creativecommons.org/ns#"
   xmlns:rdf="http://www.w3.org/1999/02/22-rdf-syntax-ns#"
   xmlns:svg="http://www.w3.org/2000/svg"
   xmlns="http://www.w3.org/2000/svg"
   xmlns:sodipodi="http://sodipodi.sourceforge.net/DTD/sodipodi-0.dtd"
   xmlns:inkscape="http://www.inkscape.org/namespaces/inkscape"
   width="512px"
   height="512px"
   viewBox="0 0 512 512"
   version="1.1"
   id="svg10"
   sodipodi:docname="cycling.svg"
   inkscape:version="0.92.5 (2060ec1f9f, 2020-04-08)">
  <metadata
     id="metadata16">
    <rdf:RDF>
      <cc:Work
         rdf:about="">
        <dc:format>image/svg+xml</dc:format>
        <dc:type
           rdf:resource="http://purl.org/dc/dcmitype/StillImage" />
        <dc:title></dc:title>
      </cc:Work>
    </rdf:RDF>
  </metadata>
  <defs
     id="defs14" />
  <sodipodi:namedview
     pagecolor="#ffffff"
     bordercolor="#666666"
     borderopacity="1"
     objecttolerance="10"
     gridtolerance="10"
     guidetolerance="10"
     inkscape:pageopacity="0"
     inkscape:pageshadow="2"
     inkscape:window-width="640"
     inkscape:window-height="480"
     id="namedview12"
     showgrid="false"
     inkscape:zoom="0.51495361"
     inkscape:cx="256"
     inkscape:cy="256"
     inkscape:window-x="0"
     inkscape:window-y="0"
     inkscape:window-maximized="0"
     inkscape:current-layer="svg10" />
  <path
     fill="var(--ci-primary-color, currentColor)"
     d="M116,468A100,100,0,1,0,16,368,100.113,100.113,0,0,0,116,468Zm0-168a68,68,0,1,1-68,68A68.077,68.077,0,0,1,116,300Z"
     class="ci-primary"
     id="path2"
     style="fill:#b3b3b3" />
  <path
     fill="var(--ci-primary-color, currentColor)"
     d="M296,368A100,100,0,1,0,396,268,100.113,100.113,0,0,0,296,368Zm100-68a68,68,0,1,1-68,68A68.077,68.077,0,0,1,396,300Z"
     class="ci-primary"
     id="path4"
     style="fill:#b3b3b3" />
  <circle
     cx="317.912"
     cy="94.088"
     r="34.088"
     fill="var(--ci-primary-color, currentColor)"
     class="ci-primary"
     id="circle6"
     style="fill:#b3b3b3" />
  <path
     fill="var(--ci-primary-color, currentColor)"
     d="M190.954,266.3,240,314.69V404h32V311.345a24.154,24.154,0,0,0-7.144-17.084l-51.274-50.588,66.453-66.453L338.2,236.771A24.14,24.14,0,0,0,355.369,244H384V212H358.738l-92.487-94.688-.475.464-8.4-8.4-112,112,45.254,45.254Z"
     class="ci-primary"
     id="path8"
     style="fill:#b3b3b3" />
</svg>
